<svg width="32" height="32" viewBox="0 0 32 32" fill="none" xmlns="http://www.w3.org/2000/svg">
<path d="M30.375 0.375H1.625C0.933594 0.375 0.375 0.933594 0.375 1.625V30.375C0.375 31.0664 0.933594 31.625 1.625 31.625H30.375C31.0664 31.625 31.625 31.0664 31.625 30.375V1.625C31.625 0.933594 31.0664 0.375 30.375 0.375ZM19.3789 9.70703H24.7852V11.0234H19.3789V9.70703ZM16 20.5625C15.7472 21.0425 15.3861 21.4571 14.9453 21.7734C14.4844 22.0938 13.9727 22.3281 13.4297 22.4648C12.8616 22.6171 12.2756 22.692 11.6875 22.6875H5.21875V9.36328H11.5078C12.1445 9.36328 12.7227 9.42188 13.25 9.53125C13.7734 9.64062 14.2188 9.82812 14.5938 10.082C14.9648 10.3359 15.2578 10.6758 15.4648 11.0977C15.668 11.5156 15.7734 12.0391 15.7734 12.6602C15.7734 13.332 15.6211 13.8867 15.3164 14.3359C15.0078 14.7852 14.5625 15.1484 13.957 15.4336C14.7813 15.668 15.3867 16.0859 15.7852 16.6719C16.1914 17.2656 16.3906 17.9766 16.3906 18.8125C16.3906 19.4922 16.2617 20.0742 16 20.5625ZM26.8906 18.5H19.9219C19.9219 19.2578 20.1836 19.9844 20.5781 20.375C20.9766 20.7617 21.5469 20.957 22.293 20.957C22.832 20.957 23.2891 20.8203 23.6797 20.5508C24.0664 20.2812 24.3008 19.9961 24.3867 19.6992H26.7227C26.3477 20.8594 25.7773 21.6875 25.0039 22.1875C24.2383 22.6875 23.3008 22.9375 22.2109 22.9375C21.4492 22.9375 20.7656 22.8125 20.1523 22.5742C19.5625 22.3438 19.0312 21.9922 18.5938 21.5391C18.1624 21.0737 17.829 20.5264 17.6133 19.9297C17.375 19.2695 17.2578 18.5742 17.2656 17.875C17.2656 17.1523 17.3867 16.4805 17.6211 15.8555C18.0703 14.6406 19.0039 13.668 20.1953 13.1641C20.832 12.8984 21.5156 12.7656 22.207 12.7734C23.0273 12.7734 23.7383 12.9297 24.3555 13.25C24.9496 13.5559 25.4655 13.9942 25.8633 14.5312C26.2578 15.0664 26.5352 15.6758 26.7109 16.3633C26.8789 17.0391 26.9375 17.75 26.8906 18.5ZM22.125 14.7656C21.7031 14.7656 21.3477 14.8398 21.0742 14.9844C20.8008 15.1289 20.5742 15.3086 20.4023 15.5156C20.2387 15.7155 20.1177 15.9468 20.0469 16.1953C19.9844 16.4023 19.9414 16.6133 19.9258 16.8281H24.2422C24.1797 16.1523 23.9453 15.6523 23.6328 15.3008C23.3047 14.9531 22.7773 14.7656 22.125 14.7656ZM12.418 14.3711C12.7578 14.125 12.9219 13.7188 12.9219 13.1602C12.9336 12.8945 12.8789 12.6328 12.7617 12.3945C12.6562 12.2031 12.5 12.043 12.3086 11.9297C12.1101 11.8093 11.8897 11.7297 11.6602 11.6953C11.4102 11.6484 11.1562 11.625 10.9062 11.6289H8.16016V14.7422H11.1328C11.6445 14.7461 12.0781 14.6211 12.418 14.3711ZM12.8789 17.1836C12.4961 16.8906 11.9844 16.7461 11.3477 16.7461H8.15234V20.418H11.2852C11.5781 20.418 11.8477 20.3906 12.1094 20.3359C12.3711 20.2812 12.6055 20.1875 12.8047 20.0547C13.0039 19.9258 13.1641 19.75 13.2852 19.5234C13.4023 19.2969 13.4609 19.0078 13.4609 18.6602C13.4609 17.9687 13.2656 17.4805 12.8789 17.1836Z" fill="#70757A"/>
</svg>
