<svg width="24" height="24" viewBox="0 0 24 24" fill="none" xmlns="http://www.w3.org/2000/svg">
<path d="M2.66667 24C1.93333 24 1.30578 23.7391 0.784 23.2173C0.262222 22.6956 0.000888889 22.0676 0 21.3333V2.66667C0 1.93333 0.261333 1.30578 0.784 0.784C1.30667 0.262222 1.93422 0.000888889 2.66667 0H10.6667C11.0444 0 11.3613 0.128 11.6173 0.384C11.8733 0.64 12.0009 0.956445 12 1.33333C11.9991 1.71022 11.8711 2.02711 11.616 2.284C11.3609 2.54089 11.0444 2.66844 10.6667 2.66667H2.66667V21.3333H21.3333V13.3333C21.3333 12.9556 21.4613 12.6391 21.7173 12.384C21.9733 12.1289 22.2898 12.0009 22.6667 12C23.0436 11.9991 23.3604 12.1271 23.6173 12.384C23.8742 12.6409 24.0018 12.9573 24 13.3333V21.3333C24 22.0667 23.7391 22.6947 23.2173 23.2173C22.6956 23.74 22.0676 24.0009 21.3333 24H2.66667ZM21.3333 4.53333L9.86667 16C9.62222 16.2444 9.31111 16.3667 8.93333 16.3667C8.55555 16.3667 8.24444 16.2444 8 16C7.75556 15.7556 7.63333 15.4444 7.63333 15.0667C7.63333 14.6889 7.75556 14.3778 8 14.1333L19.4667 2.66667H16C15.6222 2.66667 15.3058 2.53867 15.0507 2.28267C14.7956 2.02667 14.6676 1.71022 14.6667 1.33333C14.6658 0.956445 14.7938 0.64 15.0507 0.384C15.3076 0.128 15.624 0 16 0H22.6667C23.0444 0 23.3613 0.128 23.6173 0.384C23.8733 0.64 24.0009 0.956445 24 1.33333V8C24 8.37778 23.872 8.69467 23.616 8.95067C23.36 9.20667 23.0436 9.33422 22.6667 9.33333C22.2898 9.33245 21.9733 9.20444 21.7173 8.94933C21.4613 8.69422 21.3333 8.37778 21.3333 8V4.53333Z" fill="#70757A"/>
</svg>
