<svg width="32" height="32" viewBox="0 0 32 32" fill="none" xmlns="http://www.w3.org/2000/svg">
<rect x="0.15" y="0.15" width="31.7" height="31.7" rx="3.85" fill="white" stroke="#70757A" stroke-width="0.3"/>
<path d="M6.22656 9.625H8.46094L11 17.5391L13.5391 9.625H15.7734L11.9062 21H10.0938L6.22656 9.625ZM4.86719 9.625H7.17969L7.60938 18.3438V21H4.86719V9.625ZM14.8203 9.625H17.1406V21H14.3906V18.3438L14.8203 9.625ZM25.3672 17.1484H28.1016C28.0651 17.9401 27.8516 18.638 27.4609 19.2422C27.0703 19.8464 26.5286 20.3177 25.8359 20.6562C25.1484 20.9896 24.3359 21.1562 23.3984 21.1562C22.638 21.1562 21.9583 21.0286 21.3594 20.7734C20.7656 20.5182 20.2604 20.151 19.8438 19.6719C19.4323 19.1927 19.1172 18.612 18.8984 17.9297C18.6849 17.2474 18.5781 16.4792 18.5781 15.625V15.0078C18.5781 14.1536 18.6901 13.3854 18.9141 12.7031C19.1432 12.0156 19.4661 11.4323 19.8828 10.9531C20.3047 10.4688 20.8099 10.099 21.3984 9.84375C21.987 9.58854 22.6406 9.46094 23.3594 9.46094C24.349 9.46094 25.1849 9.63802 25.8672 9.99219C26.5495 10.3464 27.0781 10.8333 27.4531 11.4531C27.8281 12.0677 28.0495 12.7682 28.1172 13.5547H25.3828C25.3724 13.1276 25.2995 12.7708 25.1641 12.4844C25.0286 12.1927 24.8151 11.974 24.5234 11.8281C24.2318 11.6823 23.8438 11.6094 23.3594 11.6094C23.0208 11.6094 22.7266 11.6719 22.4766 11.7969C22.2266 11.9219 22.0182 12.1198 21.8516 12.3906C21.6849 12.6615 21.5599 13.013 21.4766 13.4453C21.3984 13.8724 21.3594 14.388 21.3594 14.9922V15.625C21.3594 16.2292 21.3958 16.7448 21.4688 17.1719C21.5417 17.599 21.6589 17.9479 21.8203 18.2188C21.9818 18.4896 22.1901 18.6901 22.4453 18.8203C22.7057 18.9453 23.0234 19.0078 23.3984 19.0078C23.8151 19.0078 24.1667 18.9427 24.4531 18.8125C24.7396 18.6771 24.9609 18.474 25.1172 18.2031C25.2734 17.9271 25.3568 17.5755 25.3672 17.1484Z" fill="#1D2126"/>
</svg>
