<svg width="25" height="25" viewBox="0 0 25 25" fill="none" xmlns="http://www.w3.org/2000/svg">
<path d="M15.625 7.8125C15.625 7.6053 15.7073 7.40659 15.8538 7.26007C16.0003 7.11356 16.199 7.03125 16.4062 7.03125H22.6562C22.8635 7.03125 23.0622 7.11356 23.2087 7.26007C23.3552 7.40659 23.4375 7.6053 23.4375 7.8125C23.4375 8.0197 23.3552 8.21841 23.2087 8.36493C23.0622 8.51144 22.8635 8.59375 22.6562 8.59375H16.4062C16.199 8.59375 16.0003 8.51144 15.8538 8.36493C15.7073 8.21841 15.625 8.0197 15.625 7.8125ZM13.2812 15.4297C13.2812 16.5175 12.8491 17.5607 12.0799 18.3299C11.3107 19.0991 10.2675 19.5312 9.17969 19.5312H3.125C2.9178 19.5312 2.71909 19.4489 2.57257 19.3024C2.42606 19.1559 2.34375 18.9572 2.34375 18.75V6.25C2.34375 6.0428 2.42606 5.84409 2.57257 5.69757C2.71909 5.55106 2.9178 5.46875 3.125 5.46875H8.78906C9.53627 5.46955 10.2658 5.69589 10.8823 6.11816C11.4987 6.54044 11.9733 7.13897 12.244 7.83543C12.5147 8.53189 12.5688 9.29384 12.3993 10.0216C12.2298 10.7493 11.8445 11.4089 11.2939 11.9141C11.9003 12.2788 12.402 12.7943 12.7503 13.4103C13.0985 14.0264 13.2814 14.722 13.2812 15.4297ZM3.90625 11.3281H8.78906C9.35886 11.3281 9.90533 11.1018 10.3082 10.6989C10.7111 10.296 10.9375 9.74949 10.9375 9.17969C10.9375 8.60989 10.7111 8.06342 10.3082 7.66051C9.90533 7.2576 9.35886 7.03125 8.78906 7.03125H3.90625V11.3281ZM11.7188 15.4297C11.7188 15.0963 11.6531 14.7661 11.5255 14.458C11.3979 14.15 11.2108 13.8701 10.9751 13.6343C10.7393 13.3985 10.4594 13.2115 10.1513 13.0839C9.84329 12.9563 9.51312 12.8906 9.17969 12.8906H3.90625V17.9688H9.17969C9.51312 17.9688 9.84329 17.9031 10.1513 17.7755C10.4594 17.6479 10.7393 17.4609 10.9751 17.2251C11.2108 16.9893 11.3979 16.7094 11.5255 16.4013C11.6531 16.0933 11.7188 15.7631 11.7188 15.4297ZM24.2188 14.8438C24.2188 15.051 24.1364 15.2497 23.9899 15.3962C23.8434 15.5427 23.6447 15.625 23.4375 15.625H16.5039C16.651 16.1951 16.9561 16.712 17.3841 17.1162C17.8121 17.5205 18.3456 17.7956 18.9231 17.9099C19.5006 18.0242 20.0987 17.973 20.6484 17.7623C21.1981 17.5515 21.6771 17.1898 22.0303 16.7187C22.0919 16.6367 22.1691 16.5675 22.2574 16.5153C22.3458 16.463 22.4435 16.4287 22.5451 16.4142C22.6467 16.3998 22.7502 16.4055 22.8496 16.431C22.949 16.4565 23.0424 16.5014 23.1245 16.563C23.2066 16.6246 23.2757 16.7018 23.328 16.7901C23.3802 16.8785 23.4146 16.9762 23.429 17.0778C23.4435 17.1795 23.4378 17.2829 23.4123 17.3823C23.3867 17.4817 23.3419 17.5752 23.2803 17.6572C22.6122 18.5474 21.6491 19.1708 20.5635 19.4159C19.4778 19.6609 18.3403 19.5117 17.3546 18.9949C16.3689 18.4781 15.5992 17.6274 15.1833 16.595C14.7674 15.5627 14.7324 14.416 15.0846 13.3602C15.4368 12.3044 16.1532 11.4083 17.1055 10.8324C18.0579 10.2564 19.1842 10.0381 20.2827 10.2166C21.3813 10.395 22.3806 10.9585 23.1017 11.8063C23.8229 12.6541 24.2188 13.7308 24.2188 14.8438ZM22.5586 14.0625C22.3865 13.3903 21.9955 12.7945 21.4474 12.369C20.8993 11.9436 20.2251 11.7126 19.5312 11.7126C18.8374 11.7126 18.1632 11.9436 17.6151 12.369C17.067 12.7945 16.676 13.3903 16.5039 14.0625H22.5586Z" fill="#CACACA"/>
</svg>
