<svg width="16" height="16" viewBox="0 0 16 16" fill="none" xmlns="http://www.w3.org/2000/svg">
<path d="M3.33333 14C2.96667 14 2.65289 13.8696 2.392 13.6087C2.13111 13.3478 2.00044 13.0338 2 12.6667V3.33333C2 2.96667 2.13067 2.65289 2.392 2.392C2.65333 2.13111 2.96711 2.00044 3.33333 2H7.33333C7.52222 2 7.68067 2.064 7.80867 2.192C7.93667 2.32 8.00044 2.47822 8 2.66667C7.99956 2.85511 7.93556 3.01356 7.808 3.142C7.68044 3.27044 7.52222 3.33422 7.33333 3.33333H3.33333V12.6667H12.6667V8.66667C12.6667 8.47778 12.7307 8.31956 12.8587 8.192C12.9867 8.06444 13.1449 8.00044 13.3333 8C13.5218 7.99956 13.6802 8.06356 13.8087 8.192C13.9371 8.32044 14.0009 8.47867 14 8.66667V12.6667C14 13.0333 13.8696 13.3473 13.6087 13.6087C13.3478 13.87 13.0338 14.0004 12.6667 14H3.33333ZM12.6667 4.26667L6.93333 10C6.81111 10.1222 6.65556 10.1833 6.46667 10.1833C6.27778 10.1833 6.12222 10.1222 6 10C5.87778 9.87778 5.81667 9.72222 5.81667 9.53333C5.81667 9.34444 5.87778 9.18889 6 9.06667L11.7333 3.33333H10C9.81111 3.33333 9.65289 3.26933 9.52533 3.14133C9.39778 3.01333 9.33378 2.85511 9.33333 2.66667C9.33289 2.47822 9.39689 2.32 9.52533 2.192C9.65378 2.064 9.812 2 10 2H13.3333C13.5222 2 13.6807 2.064 13.8087 2.192C13.9367 2.32 14.0004 2.47822 14 2.66667V6C14 6.18889 13.936 6.34733 13.808 6.47533C13.68 6.60333 13.5218 6.66711 13.3333 6.66667C13.1449 6.66622 12.9867 6.60222 12.8587 6.47467C12.7307 6.34711 12.6667 6.18889 12.6667 6V4.26667Z" fill="#7C7F82"/>
</svg>
