<svg width="19" height="21" viewBox="0 0 19 21" fill="none" xmlns="http://www.w3.org/2000/svg">
<path d="M4.24504 17.6673C3.83793 17.6673 3.48955 17.5115 3.19988 17.1999C2.91022 16.8883 2.76514 16.5132 2.76465 16.0747V4.92658C2.76465 4.48861 2.90973 4.11382 3.19988 3.80221C3.49004 3.49059 3.83843 3.33452 4.24504 3.33398H8.68622C8.89594 3.33398 9.07186 3.41043 9.21398 3.56332C9.35609 3.71621 9.42691 3.90519 9.42641 4.13028C9.42592 4.35537 9.35486 4.54462 9.21324 4.69804C9.07161 4.85146 8.89594 4.92764 8.68622 4.92658H4.24504V16.0747H14.6078V11.2969C14.6078 11.0713 14.6788 10.8823 14.821 10.73C14.9631 10.5776 15.1388 10.5012 15.348 10.5007C15.5572 10.5001 15.7331 10.5766 15.8757 10.73C16.0184 10.8834 16.0892 11.0724 16.0882 11.2969V16.0747C16.0882 16.5127 15.9433 16.8877 15.6537 17.1999C15.364 17.512 15.0154 17.6678 14.6078 17.6673H4.24504ZM14.6078 6.04139L8.2421 12.8895C8.1064 13.0355 7.93368 13.1085 7.72396 13.1085C7.51424 13.1085 7.34153 13.0355 7.20582 12.8895C7.07012 12.7436 7.00227 12.5577 7.00227 12.3321C7.00227 12.1065 7.07012 11.9207 7.20582 11.7747L13.5715 4.92658H11.647C11.4373 4.92658 11.2616 4.85013 11.12 4.69724C10.9784 4.54435 10.9073 4.35537 10.9068 4.13028C10.9063 3.90519 10.9774 3.71621 11.12 3.56332C11.2626 3.41043 11.4383 3.33398 11.647 3.33398H15.348C15.5577 3.33398 15.7336 3.41043 15.8757 3.56332C16.0179 3.71621 16.0887 3.90519 16.0882 4.13028V8.11176C16.0882 8.33738 16.0171 8.52663 15.875 8.67952C15.7329 8.83241 15.5572 8.90859 15.348 8.90806C15.1388 8.90753 14.9631 8.83108 14.821 8.67873C14.6788 8.52637 14.6078 8.33738 14.6078 8.11176V6.04139Z" fill="#222222"/>
</svg>
