<svg width="25" height="25" viewBox="0 0 25 25" fill="none" xmlns="http://www.w3.org/2000/svg">
<path d="M20.3428 7.39064C20.5816 6.62032 20.6582 5.80888 20.5677 5.00749C20.4773 4.20609 20.2218 3.43212 19.8174 2.73439C19.7488 2.6156 19.6501 2.51696 19.5313 2.44839C19.4126 2.37982 19.2778 2.34373 19.1406 2.34376C18.2307 2.34186 17.3328 2.55281 16.5189 2.95976C15.705 3.36672 14.9976 3.95839 14.4531 4.68751H12.1094C11.5649 3.95839 10.8575 3.36672 10.0436 2.95976C9.22966 2.55281 8.33185 2.34186 7.42188 2.34376C7.28471 2.34373 7.14995 2.37982 7.03115 2.44839C6.91235 2.51696 6.8137 2.6156 6.74512 2.73439C6.34067 3.43212 6.08518 4.20609 5.99476 5.00749C5.90433 5.80888 5.98093 6.62032 6.21973 7.39064C5.73704 8.23313 5.47848 9.18534 5.46875 10.1563V10.9375C5.47039 12.2594 5.95026 13.536 6.81975 14.5317C7.68923 15.5274 8.88961 16.1748 10.1992 16.3545C9.66466 17.0386 9.3745 17.8819 9.375 18.75V19.5313H7.03125C6.40965 19.5313 5.81351 19.2843 5.37397 18.8448C4.93443 18.4053 4.6875 17.8091 4.6875 17.1875C4.6875 16.6745 4.58646 16.1666 4.39015 15.6927C4.19385 15.2187 3.90611 14.7881 3.54339 14.4254C3.18066 14.0626 2.75004 13.7749 2.27611 13.5786C1.80218 13.3823 1.29423 13.2813 0.78125 13.2813C0.57405 13.2813 0.375336 13.3636 0.228823 13.5101C0.08231 13.6566 0 13.8553 0 14.0625C0 14.2697 0.08231 14.4684 0.228823 14.6149C0.375336 14.7615 0.57405 14.8438 0.78125 14.8438C1.40285 14.8438 1.99899 15.0907 2.43853 15.5302C2.87807 15.9698 3.125 16.5659 3.125 17.1875C3.125 18.2235 3.53655 19.2171 4.26911 19.9496C5.00168 20.6822 5.99525 21.0938 7.03125 21.0938H9.375V22.6563C9.375 22.8635 9.45731 23.0622 9.60382 23.2087C9.75034 23.3552 9.94905 23.4375 10.1562 23.4375C10.3635 23.4375 10.5622 23.3552 10.7087 23.2087C10.8552 23.0622 10.9375 22.8635 10.9375 22.6563V18.75C10.9375 18.1284 11.1844 17.5323 11.624 17.0927C12.0635 16.6532 12.6596 16.4063 13.2812 16.4063C13.9029 16.4063 14.499 16.6532 14.9385 17.0927C15.3781 17.5323 15.625 18.1284 15.625 18.75V22.6563C15.625 22.8635 15.7073 23.0622 15.8538 23.2087C16.0003 23.3552 16.199 23.4375 16.4062 23.4375C16.6135 23.4375 16.8122 23.3552 16.9587 23.2087C17.1052 23.0622 17.1875 22.8635 17.1875 22.6563V18.75C17.188 17.8819 16.8978 17.0386 16.3633 16.3545C17.6729 16.1748 18.8733 15.5274 19.7428 14.5317C20.6122 13.536 21.0921 12.2594 21.0938 10.9375V10.1563C21.084 9.18534 20.8255 8.23313 20.3428 7.39064ZM19.5312 10.9375C19.5312 11.9735 19.1197 12.9671 18.3871 13.6996C17.6546 14.4322 16.661 14.8438 15.625 14.8438H10.9375C9.9015 14.8438 8.90793 14.4322 8.17536 13.6996C7.4428 12.9671 7.03125 11.9735 7.03125 10.9375V10.1563C7.04083 9.37504 7.27472 8.61302 7.70508 7.96095C7.7853 7.85521 7.83726 7.73077 7.85606 7.59938C7.87485 7.46798 7.85986 7.33397 7.8125 7.20997C7.60895 6.68518 7.51099 6.12537 7.52423 5.56264C7.53747 4.9999 7.66165 4.44532 7.88965 3.93068C8.52902 3.99946 9.14471 4.21126 9.69109 4.55038C10.2375 4.88949 10.7005 5.34723 11.0459 5.88966C11.1163 5.99972 11.2131 6.09038 11.3276 6.15333C11.4421 6.21629 11.5705 6.24953 11.7012 6.25001H14.8604C14.9915 6.25002 15.1205 6.21701 15.2355 6.15404C15.3506 6.09106 15.4479 6.00014 15.5186 5.88966C15.8639 5.34718 16.3269 4.88941 16.8733 4.55028C17.4197 4.21116 18.0354 3.99939 18.6748 3.93068C18.9025 4.44545 19.0263 5.0001 19.0392 5.56283C19.0521 6.12556 18.9539 6.68531 18.75 7.20997C18.7028 7.33278 18.687 7.46544 18.704 7.5959C18.7211 7.72636 18.7705 7.8505 18.8477 7.95704C19.2824 8.60907 19.5197 9.37269 19.5312 10.1563V10.9375Z" fill="#CACACA"/>
</svg>
