<svg width="20" height="20" viewBox="0 0 20 20" fill="none" xmlns="http://www.w3.org/2000/svg">
<path d="M16.1817 6.11903C16.3648 5.54608 16.4236 4.94254 16.3542 4.34648C16.2849 3.75041 16.0889 3.17475 15.7787 2.65578C15.7261 2.56743 15.6505 2.49406 15.5593 2.44306C15.4682 2.39206 15.3649 2.36522 15.2597 2.36524C14.5617 2.36383 13.8731 2.52073 13.2489 2.82342C12.6246 3.1261 12.082 3.56618 11.6644 4.10849H9.8668C9.44921 3.56618 8.90661 3.1261 8.28235 2.82342C7.6581 2.52073 6.9695 2.36383 6.27156 2.36524C6.16636 2.36522 6.063 2.39206 5.97188 2.44306C5.88077 2.49406 5.8051 2.56743 5.7525 2.65578C5.4423 3.17475 5.24634 3.75041 5.17698 4.34648C5.10763 4.94254 5.16638 5.54608 5.34953 6.11903C4.97932 6.74566 4.78101 7.4539 4.77355 8.17605V8.75714C4.77481 9.74033 5.14286 10.6899 5.80974 11.4304C6.47662 12.171 7.39729 12.6526 8.40174 12.7862C7.99174 13.295 7.76919 13.9222 7.76958 14.5679V15.149H5.97196C5.4952 15.149 5.03797 14.9654 4.70085 14.6384C4.36373 14.3115 4.17434 13.8681 4.17434 13.4058C4.17434 13.0242 4.09685 12.6464 3.94628 12.2939C3.79572 11.9414 3.57503 11.6211 3.29682 11.3514C3.01862 11.0816 2.68833 10.8675 2.32484 10.7215C1.96134 10.5755 1.57175 10.5004 1.17831 10.5004C1.01939 10.5004 0.866978 10.5616 0.754605 10.6706C0.642232 10.7795 0.579102 10.9273 0.579102 11.0815C0.579102 11.2356 0.642232 11.3834 0.754605 11.4923C0.866978 11.6013 1.01939 11.6625 1.17831 11.6625C1.65507 11.6625 2.1123 11.8462 2.44942 12.1731C2.78654 12.5 2.97593 12.9434 2.97593 13.4058C2.97593 14.1763 3.29158 14.9153 3.85344 15.4602C4.41531 16.0051 5.17736 16.3112 5.97196 16.3112H7.76958V17.4734C7.76958 17.6275 7.83271 17.7753 7.94508 17.8842C8.05745 17.9932 8.20987 18.0544 8.36878 18.0544C8.5277 18.0544 8.68011 17.9932 8.79249 17.8842C8.90486 17.7753 8.96799 17.6275 8.96799 17.4734V14.5679C8.96799 14.1056 9.15738 13.6622 9.4945 13.3353C9.83162 13.0084 10.2889 12.8247 10.7656 12.8247C11.2424 12.8247 11.6996 13.0084 12.0367 13.3353C12.3738 13.6622 12.5632 14.1056 12.5632 14.5679V17.4734C12.5632 17.6275 12.6264 17.7753 12.7387 17.8842C12.8511 17.9932 13.0035 18.0544 13.1624 18.0544C13.3214 18.0544 13.4738 17.9932 13.5861 17.8842C13.6985 17.7753 13.7616 17.6275 13.7616 17.4734V14.5679C13.762 13.9222 13.5395 13.295 13.1295 12.7862C14.1339 12.6526 15.0546 12.171 15.7215 11.4304C16.3884 10.6899 16.7564 9.74033 16.7577 8.75714V8.17605C16.7502 7.4539 16.5519 6.74566 16.1817 6.11903ZM15.5593 8.75714C15.5593 9.5277 15.2436 10.2667 14.6817 10.8116C14.1199 11.3564 13.3578 11.6625 12.5632 11.6625H8.96799C8.17339 11.6625 7.41134 11.3564 6.84948 10.8116C6.28761 10.2667 5.97196 9.5277 5.97196 8.75714V8.17605C5.97931 7.59499 6.1587 7.02822 6.48877 6.54322C6.55031 6.46457 6.59016 6.37201 6.60457 6.27428C6.61899 6.17656 6.60749 6.07688 6.57117 5.98465C6.41505 5.59432 6.33991 5.17794 6.35007 4.75939C6.36022 4.34084 6.45546 3.92835 6.63034 3.54556C7.12072 3.59672 7.59295 3.75426 8.01201 4.00649C8.43107 4.25872 8.78622 4.59918 9.05113 5.00263C9.10511 5.08449 9.1794 5.15192 9.26721 5.19874C9.35501 5.24556 9.45351 5.27029 9.55371 5.27065H11.9768C12.0773 5.27065 12.1763 5.2461 12.2645 5.19926C12.3528 5.15242 12.4274 5.0848 12.4816 5.00263C12.7465 4.59914 13.1016 4.25865 13.5207 4.00642C13.9397 3.75418 14.412 3.59667 14.9024 3.54556C15.077 3.92844 15.172 4.34098 15.1819 4.75953C15.1918 5.17808 15.1164 5.59441 14.9601 5.98465C14.9238 6.076 14.9117 6.17466 14.9248 6.2717C14.9379 6.36873 14.9757 6.46107 15.035 6.54031C15.3684 7.02528 15.5504 7.59324 15.5593 8.17605V8.75714Z" fill="#222222"/>
</svg>
