<svg width="23" height="23" viewBox="0 0 23 23" fill="none" xmlns="http://www.w3.org/2000/svg">
<path d="M15.3336 8.04935L6.80443 16.5785C6.62873 16.7542 6.40512 16.8421 6.13359 16.8421C5.86207 16.8421 5.63845 16.7542 5.46276 16.5785C5.28707 16.4028 5.19922 16.1792 5.19922 15.9077C5.19922 15.6362 5.28707 15.4125 5.46276 15.2368L13.9919 6.70768H6.70859C6.43707 6.70768 6.20962 6.61568 6.02626 6.43168C5.8429 6.24768 5.7509 6.02024 5.75026 5.74935C5.74962 5.47846 5.84162 5.25102 6.02626 5.06702C6.2109 4.88302 6.43834 4.79102 6.70859 4.79102H16.2919C16.5635 4.79102 16.7912 4.88302 16.9752 5.06702C17.1592 5.25102 17.2509 5.47846 17.2503 5.74935V15.3327C17.2503 15.6042 17.1583 15.832 16.9743 16.016C16.7903 16.2 16.5628 16.2917 16.2919 16.291C16.021 16.2904 15.7936 16.1984 15.6096 16.015C15.4256 15.8317 15.3336 15.6042 15.3336 15.3327V8.04935Z" fill="white"/>
</svg>
