<svg width="26" height="26" viewBox="0 0 26 26" fill="none" xmlns="http://www.w3.org/2000/svg">
<path d="M11.917 18.416H14.0837V11.916H11.917V18.416ZM13.0003 9.74935C13.3073 9.74935 13.5647 9.64535 13.7727 9.43735C13.9807 9.22935 14.0844 8.97224 14.0837 8.66601C14.0829 8.35979 13.9789 8.10268 13.7717 7.89468C13.5644 7.68668 13.3073 7.58268 13.0003 7.58268C12.6934 7.58268 12.4363 7.68668 12.229 7.89468C12.0217 8.10268 11.9177 8.35979 11.917 8.66601C11.9163 8.97224 12.0203 9.22971 12.229 9.43843C12.4377 9.64715 12.6948 9.75079 13.0003 9.74935ZM13.0003 23.8327C11.5017 23.8327 10.0934 23.5481 8.77533 22.979C7.45727 22.4099 6.31074 21.6382 5.33574 20.6639C4.36074 19.6897 3.58905 18.5431 3.02066 17.2243C2.45227 15.9056 2.16772 14.4972 2.16699 12.9993C2.16627 11.5015 2.45083 10.0931 3.02066 8.77435C3.59049 7.45557 4.36219 6.30904 5.33574 5.33477C6.3093 4.36049 7.45583 3.58879 8.77533 3.01968C10.0948 2.45057 11.5032 2.16602 13.0003 2.16602C14.4975 2.16602 15.9058 2.45057 17.2253 3.01968C18.5448 3.58879 19.6914 4.36049 20.6649 5.33477C21.6385 6.30904 22.4105 7.45557 22.9811 8.77435C23.5516 10.0931 23.8358 11.5015 23.8337 12.9993C23.8315 14.4972 23.5469 15.9056 22.98 17.2243C22.4131 18.5431 21.6414 19.6897 20.6649 20.6639C19.6885 21.6382 18.5419 22.4103 17.2253 22.9801C15.9087 23.5499 14.5004 23.8341 13.0003 23.8327Z" fill="#9C9C9C"/>
</svg>
