<svg width="25" height="25" viewBox="0 0 25 25" fill="none" xmlns="http://www.w3.org/2000/svg">
<path d="M12.8393 9.89648H11.9788C10.9965 9.89648 10.5059 9.89648 10.2007 10.2017C9.89551 10.5069 9.89551 10.9975 9.89551 11.9798V20.834C9.89551 21.8163 9.89551 22.3069 10.2007 22.6121C10.5059 22.9173 10.9965 22.9173 11.9788 22.9173H12.4997C13.482 22.9173 13.9726 22.9173 14.2778 22.6121C14.583 22.3069 14.583 21.8163 14.583 20.834V17.1882C14.583 15.4621 15.133 14.0632 16.758 14.0632C17.5705 14.0632 18.2288 14.7632 18.2288 15.6257V20.3132C18.2288 21.2954 18.2288 21.7861 18.534 22.0913C18.8393 22.3965 19.3299 22.3965 20.3122 22.3965H20.832C21.8132 22.3965 22.3049 22.3965 22.6101 22.0913C22.9143 21.7861 22.9153 21.2954 22.9153 20.3142L22.9163 14.584C22.9163 11.9944 20.4538 9.89648 18.0174 9.89648C16.6299 9.89648 15.3924 10.5757 14.583 11.6392C14.583 10.9829 14.583 10.6548 14.4403 10.4111C14.35 10.2568 14.2216 10.1284 14.0674 10.0382C13.8236 9.89544 13.4955 9.89544 12.8393 9.89544M4.68717 9.89648H4.16634C3.18405 9.89648 2.69342 9.89648 2.38822 10.2017C2.08301 10.5069 2.08301 10.9975 2.08301 11.9798V20.834C2.08301 21.8163 2.08301 22.3069 2.38822 22.6121C2.69342 22.9173 3.18405 22.9173 4.16634 22.9173H4.68717C5.66947 22.9173 6.16009 22.9173 6.4653 22.6121C6.77051 22.3069 6.77051 21.8163 6.77051 20.834V11.9798C6.77051 10.9975 6.77051 10.5069 6.4653 10.2017C6.16009 9.89648 5.66947 9.89648 4.68717 9.89648ZM6.77051 4.42773C6.77051 5.04934 6.52358 5.64548 6.08404 6.08502C5.6445 6.52455 5.04836 6.77148 4.42676 6.77148C3.80516 6.77148 3.20901 6.52455 2.76948 6.08502C2.32994 5.64548 2.08301 5.04934 2.08301 4.42773C2.08301 3.80613 2.32994 3.20999 2.76948 2.77045C3.20901 2.33091 3.80516 2.08398 4.42676 2.08398C5.04836 2.08398 5.6445 2.33091 6.08404 2.77045C6.52358 3.20999 6.77051 3.80613 6.77051 4.42773Z" stroke="#CACACA" stroke-width="1.5" stroke-linecap="round" stroke-linejoin="round"/>
</svg>
