<svg width="20" height="25" viewBox="0 0 20 25" fill="none" xmlns="http://www.w3.org/2000/svg">
<path d="M4.86144 15.9729C4.67726 15.9729 4.50062 15.8997 4.37039 15.7695C4.24016 15.6392 4.16699 15.4626 4.16699 15.2784C4.16699 15.0943 4.24016 14.9176 4.37039 14.7874C4.50062 14.6571 4.67726 14.584 4.86144 14.584H14.5837C14.7678 14.584 14.9445 14.6571 15.0747 14.7874C15.2049 14.9176 15.2781 15.0943 15.2781 15.2784C15.2781 15.4626 15.2049 15.6392 15.0747 15.7695C14.9445 15.8997 14.7678 15.9729 14.5837 15.9729H4.86144ZM4.86144 19.4451C4.67726 19.4451 4.50062 19.3719 4.37039 19.2417C4.24016 19.1115 4.16699 18.9348 4.16699 18.7507C4.16699 18.5665 4.24016 18.3898 4.37039 18.2596C4.50062 18.1294 4.67726 18.0562 4.86144 18.0562H14.5837C14.7678 18.0562 14.9445 18.1294 15.0747 18.2596C15.2049 18.3898 15.2781 18.5665 15.2781 18.7507C15.2781 18.9348 15.2049 19.1115 15.0747 19.2417C14.9445 19.3719 14.7678 19.4451 14.5837 19.4451H4.86144Z" fill="#CACACA"/>
<path fill-rule="evenodd" clip-rule="evenodd" d="M11.3681 1.94086e-07H2.08333C1.5308 1.94086e-07 1.0009 0.219494 0.610194 0.610194C0.219493 1.0009 0 1.5308 0 2.08333V22.9167C0 23.4692 0.219493 23.9991 0.610194 24.3898C1.0009 24.7805 1.5308 25 2.08333 25H17.3611C17.9136 25 18.4435 24.7805 18.8343 24.3898C19.225 23.9991 19.4444 23.4692 19.4444 22.9167V8.61389C19.4443 8.09232 19.2485 7.58978 18.8958 7.20556L12.9042 0.675C12.7089 0.462146 12.4715 0.292223 12.2071 0.17602C11.9426 0.0598177 11.6569 -0.000124481 11.3681 1.94086e-07ZM1.38889 2.08333C1.38889 1.89916 1.46205 1.72252 1.59229 1.59229C1.72252 1.46205 1.89916 1.38889 2.08333 1.38889H11.3681C11.4644 1.38878 11.5597 1.40873 11.648 1.44747C11.7362 1.48621 11.8154 1.54288 11.8806 1.61389L17.8722 8.14444C17.99 8.27245 18.0554 8.43997 18.0556 8.61389V22.9167C18.0556 23.1008 17.9824 23.2775 17.8522 23.4077C17.7219 23.5379 17.5453 23.6111 17.3611 23.6111H2.08333C1.89916 23.6111 1.72252 23.5379 1.59229 23.4077C1.46205 23.2775 1.38889 23.1008 1.38889 22.9167V2.08333Z" fill="#CACACA"/>
<path d="M7.13092 7.12921C7.32925 7.13528 7.52679 7.10146 7.71181 7.02976C7.89683 6.95805 8.06557 6.84992 8.20801 6.71177C8.35045 6.57362 8.4637 6.40828 8.54104 6.22554C8.61837 6.0428 8.65822 5.84639 8.65822 5.64796C8.65822 5.44953 8.61837 5.25312 8.54104 5.07038C8.4637 4.88764 8.35045 4.7223 8.20801 4.58415C8.06557 4.446 7.89683 4.33787 7.71181 4.26616C7.52679 4.19446 7.32925 4.16064 7.13092 4.16671C6.74592 4.1785 6.38063 4.33973 6.11247 4.61623C5.84431 4.89273 5.69434 5.26278 5.69434 5.64796C5.69434 6.03314 5.84431 6.40319 6.11247 6.67969C6.38063 6.95619 6.74592 7.11742 7.13092 7.12921Z" fill="#CACACA"/>
<path fill-rule="evenodd" clip-rule="evenodd" d="M10.092 10.3383C10.092 8.76333 8.7656 7.62305 7.12949 7.62305C5.49338 7.62305 4.16699 8.76194 4.16699 10.3383V11.08C4.16736 11.2109 4.21962 11.3363 4.3123 11.4287C4.40499 11.5211 4.53054 11.573 4.66144 11.573H9.59894C9.72959 11.5727 9.85479 11.5206 9.94717 11.4282C10.0396 11.3358 10.0916 11.2106 10.092 11.08V10.3383Z" fill="#CACACA"/>
</svg>
