<svg width="10" height="10" viewBox="0 0 10 10" fill="none" xmlns="http://www.w3.org/2000/svg">
<path d="M9.02033 8.28036C8.4254 7.25184 7.50861 6.51434 6.43869 6.16473C6.96792 5.84968 7.3791 5.36961 7.60908 4.79825C7.83907 4.22689 7.87514 3.59583 7.71176 3.00198C7.54838 2.40814 7.19458 1.88434 6.70469 1.51103C6.21481 1.13773 5.61592 0.935547 5.00001 0.935547C4.3841 0.935547 3.78522 1.13773 3.29534 1.51103C2.80545 1.88434 2.45165 2.40814 2.28827 3.00198C2.12489 3.59583 2.16096 4.22689 2.39095 4.79825C2.62093 5.36961 3.03211 5.84968 3.56134 6.16473C2.49142 6.51395 1.57462 7.25145 0.979702 8.28036C0.957885 8.31593 0.943414 8.35552 0.937143 8.39677C0.930871 8.43803 0.932927 8.48012 0.943188 8.52057C0.953449 8.56102 0.971707 8.59901 0.996886 8.63229C1.02206 8.66557 1.05365 8.69346 1.08979 8.71434C1.12593 8.73521 1.16588 8.74863 1.20728 8.75382C1.24869 8.759 1.29072 8.75584 1.33088 8.74451C1.37105 8.73319 1.40854 8.71394 1.44114 8.68789C1.47375 8.66185 1.5008 8.62953 1.52072 8.59286C2.25665 7.32098 3.55744 6.56161 5.00001 6.56161C6.44259 6.56161 7.74337 7.32098 8.47931 8.59286C8.49922 8.62953 8.52628 8.66185 8.55889 8.68789C8.59149 8.71394 8.62898 8.73319 8.66915 8.74451C8.70931 8.75584 8.75134 8.759 8.79275 8.75382C8.83415 8.74863 8.8741 8.73521 8.91024 8.71434C8.94637 8.69346 8.97796 8.66557 9.00314 8.63229C9.02832 8.59901 9.04658 8.56102 9.05684 8.52057C9.0671 8.48012 9.06916 8.43803 9.06289 8.39677C9.05661 8.35552 9.04214 8.31593 9.02033 8.28036ZM2.81251 3.74911C2.81251 3.31646 2.94081 2.89353 3.18117 2.5338C3.42154 2.17407 3.76318 1.89369 4.16289 1.72812C4.56261 1.56256 5.00244 1.51924 5.42677 1.60364C5.85111 1.68805 6.24088 1.89639 6.54681 2.20231C6.85274 2.50824 7.06108 2.89802 7.14548 3.32235C7.22989 3.74668 7.18657 4.18652 7.021 4.58623C6.85543 4.98594 6.57506 5.32758 6.21532 5.56795C5.85559 5.80832 5.43266 5.93661 5.00001 5.93661C4.42004 5.93599 3.864 5.70532 3.4539 5.29522C3.0438 4.88512 2.81313 4.32908 2.81251 3.74911Z" fill="#7C7F82"/>
</svg>
